<?xml version="1.0" encoding="iso-8859-1"?>
<!-- Generator: Adobe Illustrator 19.0.0, SVG Export Plug-In . SVG Version: 6.00 Build 0)  -->
<svg version="1.1" id="Layer_1" xmlns="http://www.w3.org/2000/svg" xmlns:xlink="http://www.w3.org/1999/xlink" x="0px" y="0px"
	 viewBox="0 0 512 512" style="enable-background:new 0 0 512 512;" xml:space="preserve">
<g>
	<g>
		<path d="M389.565,478.609h-21.66l-22.962-63.781c-4.592,2.064-9.226,4.038-13.943,5.77c-13.751,28.065-42.642,46.88-75,46.88
			s-61.25-18.815-75-46.88c-4.72-1.733-9.353-3.709-13.942-5.773l-22.963,63.784h-21.66c-9.217,0-16.696,7.479-16.696,16.696
			c0,9.217,7.479,16.696,16.696,16.696h267.13c9.217,0,16.696-7.479,16.696-16.696C406.261,486.087,398.782,478.609,389.565,478.609
			z"/>
	</g>
</g>
<g>
	<g>
		<path d="M432.85,167.956c-3.984-14.409-9.696-28.193-17.084-41.222c12.734-19.052,11.19-45.68-6.288-63.159
			c-17.421-17.421-44.015-19.096-63.171-6.301c-13.027-7.387-26.811-13.098-41.22-17.083C300.479,17.299,280.231,0,256,0
			s-44.479,17.298-49.087,40.192c-14.411,3.985-28.193,9.697-41.22,17.084c-19.051-12.734-45.682-11.191-63.161,6.289
			c-17.422,17.422-19.095,44.015-6.302,63.172c-7.386,13.027-13.098,26.811-17.082,41.219
			c-22.892,4.608-40.191,24.856-40.191,49.087c0,24.232,17.299,44.48,40.193,49.087c3.984,14.409,9.696,28.191,17.082,41.219
			c-12.696,19.012-11.226,45.645,6.291,63.161c17.387,17.387,43.98,19.124,63.174,6.302c13.027,7.386,26.809,13.098,41.217,17.082
			c4.607,22.894,24.855,40.192,49.086,40.192s44.479-17.299,49.087-40.192c14.409-3.985,28.193-9.696,41.22-17.083
			c19.01,12.698,45.644,11.226,63.161-6.29c17.421-17.421,19.098-44.019,6.302-63.174c7.387-13.026,13.098-26.808,17.082-41.217
			c22.892-4.608,40.191-24.855,40.191-49.087C473.043,192.812,455.745,172.564,432.85,167.956z M123.217,146.635
			c11.719,3.611,23.46,3.506,36.193-2.571l51.522,51.521c-0.74,1.547-1.361,3.134-1.943,4.764h-72.934
			c-4.231-11.862-12.748-21.561-23.75-27.393C115.086,163.848,118.732,155.054,123.217,146.635z M159.41,290.023
			c-12.784-6.102-24.536-6.163-36.193-2.572c-4.486-8.418-8.129-17.212-10.913-26.319c11.002-5.832,19.519-15.531,23.75-27.393
			h72.934c0.581,1.63,1.202,3.217,1.943,4.764L159.41,290.023z M239.304,336.992c-11.862,4.227-21.561,12.744-27.394,23.748
			c-9.106-2.784-17.9-6.428-26.318-10.912c3.608-11.72,3.505-23.46-2.573-36.194l51.522-51.521c1.546,0.74,3.134,1.361,4.764,1.942
			V336.992z M239.304,170.034c-1.63,0.581-3.218,1.202-4.764,1.942l-51.522-51.521c6.062-12.698,6.195-24.432,2.573-36.194
			c8.418-4.484,17.212-8.129,26.318-10.913c5.833,11.002,15.532,19.519,27.394,23.749V170.034z M352.59,144.063
			c12.697,6.06,24.43,6.195,36.193,2.571c4.486,8.419,8.131,17.212,10.913,26.32c-11.002,5.832-19.519,15.531-23.75,27.393h-72.934
			c-0.581-1.63-1.202-3.217-1.943-4.764L352.59,144.063z M272.696,97.097c11.862-4.23,21.561-12.747,27.394-23.75
			c9.106,2.784,17.9,6.429,26.319,10.913c-3.601,11.695-3.521,23.431,2.572,36.194l-51.522,51.521
			c-1.546-0.74-3.134-1.361-4.764-1.942V97.097z M326.409,349.825c-8.42,4.484-17.213,8.13-26.319,10.913
			c-5.833-11.002-15.533-19.519-27.394-23.749v-72.937c1.629-0.581,3.218-1.202,4.764-1.942l51.522,51.521
			C322.907,326.356,322.796,338.089,326.409,349.825z M388.783,287.451c-11.715-3.61-23.456-3.506-36.193,2.572l-51.522-51.521
			c0.74-1.547,1.361-3.134,1.943-4.764h72.934c4.231,11.862,12.748,21.561,23.75,27.393
			C396.912,270.239,393.268,279.033,388.783,287.451z"/>
	</g>
</g>
<g>
</g>
<g>
</g>
<g>
</g>
<g>
</g>
<g>
</g>
<g>
</g>
<g>
</g>
<g>
</g>
<g>
</g>
<g>
</g>
<g>
</g>
<g>
</g>
<g>
</g>
<g>
</g>
<g>
</g>
</svg>
